<svg xmlns="http://www.w3.org/2000/svg" width="512" height="512" version="1.1"><path fill="#D49000" d="M0 0 C1.45108658 0.00273422 1.45108658 0.00273422 2.93148804 0.00552368 C17.26440977 0.05095174 31.21023917 0.55983928 45.3125 3.3125 C46.65803955 3.55395752 46.65803955 3.55395752 48.03076172 3.80029297 C107.84088904 14.62287989 165.35495829 48.68064457 202.3125 97.3125 C202.72918945 97.85277832 203.14587891 98.39305664 203.57519531 98.94970703 C211.2584873 108.9447116 218.00092968 119.40459036 224.3125 130.3125 C224.70679199 130.98974121 225.10108398 131.66698242 225.50732422 132.36474609 C240.41535371 158.28373809 249.97401819 187.77601638 254.3125 217.3125 C254.48982666 218.51712891 254.66715332 219.72175781 254.84985352 220.96289062 C256.448825 232.62017354 256.6709053 244.18436098 256.625 255.9375 C256.62226578 257.39233292 256.62226578 257.39233292 256.61947632 258.8765564 C256.57408309 273.22806055 256.0687347 287.19192918 253.3125 301.3125 C253.15152832 302.20952637 252.99055664 303.10655273 252.82470703 304.03076172 C242.00212011 363.84088904 207.94435543 421.35495829 159.3125 458.3125 C158.77222168 458.72918945 158.23194336 459.14587891 157.67529297 459.57519531 C147.6802884 467.2584873 137.22040964 474.00092968 126.3125 480.3125 C125.63525879 480.70679199 124.95801758 481.10108398 124.26025391 481.50732422 C98.34126191 496.41535371 68.84898362 505.97401819 39.3125 510.3125 C38.10787109 510.48982666 36.90324219 510.66715332 35.66210938 510.84985352 C24.00482646 512.448825 12.44063902 512.6709053 0.6875 512.625 C-0.76733292 512.62226578 -0.76733292 512.62226578 -2.2515564 512.61947632 C-16.60306055 512.57408309 -30.56692918 512.0687347 -44.6875 509.3125 C-45.58452637 509.15152832 -46.48155273 508.99055664 -47.40576172 508.82470703 C-107.21588904 498.00212011 -164.72995829 463.94435543 -201.6875 415.3125 C-202.10418945 414.77222168 -202.52087891 414.23194336 -202.95019531 413.67529297 C-210.6334873 403.6802884 -217.37592968 393.22040964 -223.6875 382.3125 C-224.08179199 381.63525879 -224.47608398 380.95801758 -224.88232422 380.26025391 C-238.06461173 357.3416244 -246.67010918 331.76677437 -252 305.9375 C-252.14743652 305.22682373 -252.29487305 304.51614746 -252.44677734 303.78393555 C-255.43213787 288.14141634 -256.0623098 272.50580394 -256 256.625 C-255.99817719 255.65760895 -255.99635437 254.6902179 -255.99447632 253.69351196 C-255.94904826 239.36059023 -255.44016072 225.41476083 -252.6875 211.3125 C-252.44604248 209.96696045 -252.44604248 209.96696045 -252.19970703 208.59423828 C-241.37712011 148.78411096 -207.31935543 91.27004171 -158.6875 54.3125 C-158.14722168 53.89581055 -157.60694336 53.47912109 -157.05029297 53.04980469 C-147.0552884 45.3665127 -136.59540964 38.62407032 -125.6875 32.3125 C-125.01025879 31.91820801 -124.33301758 31.52391602 -123.63525391 31.11767578 C-100.7166244 17.93538827 -75.14177437 9.32989082 -49.3125 4 C-48.60182373 3.85256348 -47.89114746 3.70512695 -47.15893555 3.55322266 C-31.51641634 0.56786213 -15.88080394 -0.0623098 0 0 Z" transform="translate(255.6875,-0.3125)"/><path fill="#FEC742" d="M0 0 C1.45108658 0.00273422 1.45108658 0.00273422 2.93148804 0.00552368 C17.26440977 0.05095174 31.21023917 0.55983928 45.3125 3.3125 C46.65803955 3.55395752 46.65803955 3.55395752 48.03076172 3.80029297 C107.84088904 14.62287989 165.35495829 48.68064457 202.3125 97.3125 C202.72918945 97.85277832 203.14587891 98.39305664 203.57519531 98.94970703 C211.2584873 108.9447116 218.00092968 119.40459036 224.3125 130.3125 C224.70679199 130.98974121 225.10108398 131.66698242 225.50732422 132.36474609 C240.41535371 158.28373809 249.97401819 187.77601638 254.3125 217.3125 C254.48982666 218.51712891 254.66715332 219.72175781 254.84985352 220.96289062 C256.448825 232.62017354 256.6709053 244.18436098 256.625 255.9375 C256.62226578 257.39233292 256.62226578 257.39233292 256.61947632 258.8765564 C256.57408309 273.22806055 256.0687347 287.19192918 253.3125 301.3125 C253.15152832 302.20952637 252.99055664 303.10655273 252.82470703 304.03076172 C242.00212011 363.84088904 207.94435543 421.35495829 159.3125 458.3125 C158.77222168 458.72918945 158.23194336 459.14587891 157.67529297 459.57519531 C147.6802884 467.2584873 137.22040964 474.00092968 126.3125 480.3125 C125.63525879 480.70679199 124.95801758 481.10108398 124.26025391 481.50732422 C98.34126191 496.41535371 68.84898362 505.97401819 39.3125 510.3125 C38.10787109 510.48982666 36.90324219 510.66715332 35.66210938 510.84985352 C24.00482646 512.448825 12.44063902 512.6709053 0.6875 512.625 C-0.76733292 512.62226578 -0.76733292 512.62226578 -2.2515564 512.61947632 C-16.60306055 512.57408309 -30.56692918 512.0687347 -44.6875 509.3125 C-45.58452637 509.15152832 -46.48155273 508.99055664 -47.40576172 508.82470703 C-107.21588904 498.00212011 -164.72995829 463.94435543 -201.6875 415.3125 C-202.10418945 414.77222168 -202.52087891 414.23194336 -202.95019531 413.67529297 C-210.6334873 403.6802884 -217.37592968 393.22040964 -223.6875 382.3125 C-224.08179199 381.63525879 -224.47608398 380.95801758 -224.88232422 380.26025391 C-238.06461173 357.3416244 -246.67010918 331.76677437 -252 305.9375 C-252.14743652 305.22682373 -252.29487305 304.51614746 -252.44677734 303.78393555 C-255.43213787 288.14141634 -256.0623098 272.50580394 -256 256.625 C-255.99817719 255.65760895 -255.99635437 254.6902179 -255.99447632 253.69351196 C-255.94904826 239.36059023 -255.44016072 225.41476083 -252.6875 211.3125 C-252.44604248 209.96696045 -252.44604248 209.96696045 -252.19970703 208.59423828 C-241.37712011 148.78411096 -207.31935543 91.27004171 -158.6875 54.3125 C-158.14722168 53.89581055 -157.60694336 53.47912109 -157.05029297 53.04980469 C-147.0552884 45.3665127 -136.59540964 38.62407032 -125.6875 32.3125 C-125.01025879 31.91820801 -124.33301758 31.52391602 -123.63525391 31.11767578 C-100.7166244 17.93538827 -75.14177437 9.32989082 -49.3125 4 C-48.60182373 3.85256348 -47.89114746 3.70512695 -47.15893555 3.55322266 C-31.51641634 0.56786213 -15.88080394 -0.0623098 0 0 Z M-54.6875 55.3125 C-55.85466553 55.64411133 -55.85466553 55.64411133 -57.04541016 55.98242188 C-109.42264165 71.23973265 -154.87530362 107.40392141 -181.46630859 155.03808594 C-208.47292065 205.33668609 -215.14090303 261.25682661 -199.00390625 316.171875 C-192.37722835 337.65950149 -182.77991024 358.00577518 -169.6875 376.3125 C-169.28354004 376.88323242 -168.87958008 377.45396484 -168.46337891 378.04199219 C-136.25248717 423.07136967 -86.22734756 452.84819357 -32.01171875 462.359375 C-11.8580191 465.52825121 9.1900155 465.76949088 29.3125 462.3125 C30.9464105 462.07541218 32.58054094 461.839837 34.21484375 461.60546875 C63.61585034 457.12253764 93.08413881 445.68102399 117.3125 428.3125 C117.93350586 427.87502441 118.55451172 427.43754883 119.19433594 426.98681641 C129.68276437 419.56546653 139.14740936 411.3047879 148.3125 402.3125 C148.91843994 401.71977295 149.52437988 401.1270459 150.14868164 400.51635742 C186.9357918 364.18128601 207.97276333 310.87117591 208.55371094 259.55786133 C208.60358487 239.72327376 206.76908602 220.42765636 201.3125 201.3125 C201.09142578 200.53293945 200.87035156 199.75337891 200.64257812 198.95019531 C194.47934361 177.79643783 184.91394329 157.4068801 172.3125 139.3125 C171.85939453 138.66023438 171.40628906 138.00796875 170.93945312 137.3359375 C163.56988134 126.86285605 155.27319327 117.44538886 146.3125 108.3125 C145.71977295 107.70656006 145.1270459 107.10062012 144.51635742 106.47631836 C107.13018752 68.62503316 52.77928865 48.35200221 0.125 48 C-18.41462823 48.04440004 -36.845573 50.18148831 -54.6875 55.3125 Z" transform="translate(255.6875,-0.3125)"/><path fill="#FEC742" d="M0 0 C4.49258429 3.36943822 8.09100788 7.36712172 9.5 12.875 C9.64737716 15.88352688 9.61800126 18.86596799 9.5 21.875 C10.6653125 22.00519531 11.830625 22.13539062 13.03125 22.26953125 C31.08265437 24.54181919 57.33313578 31.56794039 69.5 45.875 C73.6078425 52.58827965 73.22261174 59.23009623 72.5 66.875 C70.89107353 73.10959006 66.85931851 77.45777117 61.5 80.875 C54.87603227 84.30593981 48.71932229 84.23672134 41.5 82.875 C37.70437679 81.55435964 34.15558036 79.8551932 30.5625 78.0625 C22.95417572 74.34832879 15.62840246 71.58446749 7.5 68.875 C7.5 86.695 7.5 104.515 7.5 122.875 C10.8 123.535 14.1 124.195 17.5 124.875 C20.59277499 125.85305705 23.59666931 126.85903877 26.625 128 C27.8471521 128.45850342 27.8471521 128.45850342 29.09399414 128.92626953 C51.2535672 137.43509753 69.37227831 148.93902579 79.87109375 170.9453125 C83.44290663 179.16869434 83.85713454 186.68532855 83.8125 195.5625 C83.80686035 196.72281738 83.8012207 197.88313477 83.79541016 199.07861328 C83.52864743 217.86029393 77.61826246 232.42422875 64.41015625 246.02734375 C50.33823214 259.2849793 28.91697772 268.12716854 9.5 267.875 C9.5314209 268.85726562 9.5314209 268.85726562 9.56347656 269.859375 C9.64730383 272.86442328 9.69886895 275.86922464 9.75 278.875 C9.78351563 279.90496094 9.81703125 280.93492187 9.8515625 281.99609375 C9.94353121 289.21563757 9.1564704 295.04403949 4.01635742 300.42944336 C-1.4670217 305.23280546 -6.32081592 305.22241684 -13.328125 305.15234375 C-17.45766601 304.79126319 -19.53451171 303.76445013 -22.5 300.875 C-26.23286383 295.93147763 -27.63014378 292.47217402 -27.59765625 286.33203125 C-27.59282227 284.72231445 -27.59282227 284.72231445 -27.58789062 283.08007812 C-27.57532227 281.40075195 -27.57532227 281.40075195 -27.5625 279.6875 C-27.55798828 278.55634766 -27.55347656 277.42519531 -27.54882812 276.25976562 C-27.53703498 273.46479073 -27.5205765 270.6699218 -27.5 267.875 C-28.44685669 267.7982605 -28.44685669 267.7982605 -29.4128418 267.7199707 C-37.0590683 267.03831087 -44.16508349 265.41180088 -51.56298828 263.40136719 C-53.27713578 262.93556154 -54.99570131 262.48608131 -56.71484375 262.0390625 C-73.37590296 257.36453109 -98.42550372 248.52068324 -107.5 232.875 C-110.26275323 226.93508055 -110.6205304 219.94578764 -108.8828125 213.6328125 C-105.89874276 206.84603442 -100.39415248 202.50624958 -94.0625 198.9375 C-85.63511517 196.42406944 -79.23369051 197.99254164 -71.5 201.875 C-68.29384635 203.6401652 -65.12812127 205.47599007 -61.95581055 207.30102539 C-56.83098222 210.21287323 -51.62187795 212.82465425 -46.25 215.25 C-45.55455078 215.57129883 -44.85910156 215.89259766 -44.14257812 216.22363281 C-37.91509316 218.97173545 -32.36185947 220.15953513 -25.5 221.875 C-25.5 203.395 -25.5 184.915 -25.5 165.875 C-28.8 165.215 -32.1 164.555 -35.5 163.875 C-39.12707583 162.83730475 -42.64784165 161.55362106 -46.1875 160.25 C-47.14430664 159.89808594 -48.10111328 159.54617188 -49.08691406 159.18359375 C-61.49357048 154.50246525 -72.5672214 148.81087564 -82.5 139.875 C-83.14453125 139.31167969 -83.7890625 138.74835938 -84.453125 138.16796875 C-93.67092941 129.61144161 -100.91214664 115.59201334 -101.67700195 102.94921875 C-101.74379573 99.2577318 -101.78494782 95.56699252 -101.8125 91.875 C-101.84150391 90.61042969 -101.87050781 89.34585938 -101.90039062 88.04296875 C-102.01124144 71.48356188 -95.5561207 56.22698701 -84.07421875 44.21875 C-67.9773177 29.56299791 -48.81719625 22.95472646 -27.5 20.875 C-27.55800781 20.2459375 -27.61601562 19.616875 -27.67578125 18.96875 C-28.03253394 12.20064188 -26.94787902 8.03644249 -22.5 2.875 C-16.5969943 -3.0280057 -7.53233649 -2.42110816 0 0 Z" transform="translate(268.5,104.125)"/><path fill="#D49000" d="M0 0 C19.56660793 8.1527533 19.56660793 8.1527533 24.14453125 17.44921875 C26.1266271 23.35930364 26.188435 29.04310881 23.85546875 34.84765625 C19.55098262 42.55938735 14.36979027 45.77277093 6.1484375 48.484375 C4 49 4 49 0 49 C0 32.83 0 16.66 0 0 Z" transform="translate(276,279)"/><path fill="#D59202" d="M0 0 C0 15.84 0 31.68 0 48 C-9.69908855 44.76697048 -17.14407914 41.51770306 -23 33 C-25.53476499 27.56836074 -26.10058778 21.61809994 -24.34765625 15.85546875 C-21.57001413 9.62067548 -17.41780716 5.53920826 -11.20703125 2.7421875 C-3.94886364 0 -3.94886364 0 0 0 Z" transform="translate(243,169)"/></svg>